<?xml version="1.0" encoding="utf-8"?>
<!-- Generator: Adobe Illustrator 23.0.0, SVG Export Plug-In . SVG Version: 6.00 Build 0)  -->
<svg fill="#ffffff" version="1.1" id="Слой_1" xmlns="http://www.w3.org/2000/svg" xmlns:xlink="http://www.w3.org/1999/xlink" x="0px" y="0px"
	 viewBox="0 0 502 502" style="enable-background:new 0 0 502 502;" xml:space="preserve">
<path d="M152.2,424.2l-6.5-3.5c-6.4-3.5-14.3-2.9-20.1,1.5c-4.9,3.6-11.4,4.1-16.7,1.2l-5.8-3.2v-2.4c1.6-1.4,2.6-3.5,2.6-5.6
	c0-4-3.3-7.3-7.3-7.3c-4,0-7.3,3.3-7.3,7.3c0,2.3,0.9,4.3,2.7,5.6v82.7c0,0.4,0.1,0.8,0.4,1.1c0.3,0.3,0.7,0.4,1.1,0.4h6.2
	c0.9,0,1.6-0.6,1.6-1.5v-42.8l4.3,2.4c6.4,3.5,14.2,2.9,20.1-1.5c4.9-3.6,11.4-4.1,16.8-1.2l6.5,3.5c0.5,0.3,1.1,0.2,1.5,0
	c0.5-0.3,0.8-0.8,0.8-1.3v-34C153,425,152.7,424.5,152.2,424.2z M98.4,408c2.3,0,4.2,1.9,4.2,4.2c0,2.3-1.9,4.2-4.2,4.2
	c-2.3,0-4.2-1.9-4.2-4.2C94.2,409.9,96.1,408,98.4,408z M97,498.9v-79.6c0.5,0.1,1,0.2,1.5,0.2c0.5,0,1-0.1,1.5-0.2v79.6H97z
	 M149.9,456.9l-4.2-2.3c-6.4-3.5-14.3-2.9-20.1,1.5c-4.9,3.6-11.4,4.1-16.7,1.2l-5.8-3.2v-30.4l4.3,2.4c6.4,3.5,14.2,2.9,20.1-1.5
	c4.9-3.6,11.4-4.1,16.8-1.2l5.7,3.1L149.9,456.9z"/>
<path d="M137.4,438.2c-0.9-4.5-4.4-8-9-8.9c-4.5-0.8-9.1,1.2-11.6,5c-5.9,0-9.1,1.2-9.5,3.6c-0.3,1.9,1.4,3.7,5.2,5.3
	c1,0.4,2.1,0.8,3.3,1.2c1.5,3.9,5,6.6,9.1,7.1c4.1,0.5,8.2-1.2,10.6-4.6c0.2,0,0.4,0,0.5,0c4.1-0.4,6.2-1.5,6.5-3.4
	C142.9,441.5,141.2,439.8,137.4,438.2z M126.4,432.2c2.8,0,5.4,1.4,6.9,3.8s1.7,5.4,0.4,7.9c-3.1,0-6.1-0.2-9.1-0.7
	c-2.1-0.3-4.2-0.8-6.2-1.3c-0.5-2.4,0.2-4.9,1.7-6.7C121.6,433.3,123.9,432.2,126.4,432.2L126.4,432.2z M114.5,440.7
	c-2.5-1-3.6-1.8-3.9-2.2c0.5-0.3,1.9-0.8,4.9-0.9c-0.3,0.9-0.4,1.9-0.4,2.9c0,0.2,0,0.4,0,0.5C114.9,440.8,114.7,440.7,114.5,440.7z
	 M120,445.5c1.3,0.3,2.7,0.6,4.1,0.8c2.3,0.4,4.7,0.6,7,0.7C127.6,449.5,122.8,448.9,120,445.5z M137.1,443.6c0.2-0.6,0.3-1.3,0.4-2
	c1.1,0.6,1.6,1,1.8,1.3C139.1,443.1,138.4,443.4,137.1,443.6z"/>
</svg>
