<svg width="98" height="98" viewBox="0 0 98 98" fill="none" xmlns="http://www.w3.org/2000/svg">
<path d="M91.4299 24.4039C87.0481 16.897 81.1044 10.9533 73.5973 6.57165C66.0888 2.19025 57.8923 0 49.0014 0C40.1115 0 31.9125 2.19025 24.4054 6.57165C16.8979 10.9526 10.9542 16.8963 6.57232 24.4039C2.19025 31.9119 0 40.1108 0 49.0001C0 57.8898 2.19092 66.0875 6.57165 73.5959C10.9533 81.1028 16.897 87.0465 24.4045 91.4286C31.9125 95.8097 40.1108 98.0002 49.0006 98.0002C57.8903 98.0002 66.0895 95.8097 73.597 91.4286C81.1041 87.0481 87.0476 81.1028 91.429 73.5959C95.8097 66.0882 97.9998 57.8894 97.9998 49.0001C98 40.1099 95.8097 31.9107 91.4299 24.4039ZM80.7739 51.8078L74.9678 57.6139C74.1604 58.4213 73.2022 58.8251 72.0969 58.8251C70.9911 58.8251 70.0344 58.4213 69.2259 57.6139L57.1687 45.5551V77.5831C57.1687 78.6889 56.7635 79.6462 55.9557 80.4541C55.1483 81.263 54.1907 81.6669 53.0847 81.6669H44.9175C43.8118 81.6669 42.8546 81.263 42.0465 80.4541C41.2382 79.6464 40.834 78.6891 40.834 77.5831V45.5551L28.7756 57.6139C28.0089 58.3792 27.0531 58.7609 25.904 58.7609C24.7554 58.7609 23.7982 58.3792 23.0324 57.6139L17.2264 51.8078C16.4616 51.0415 16.0784 50.084 16.0784 48.9357C16.0784 47.7878 16.4603 46.8309 17.2264 46.0648L40.3236 22.9683L46.1296 17.1622C46.8954 16.3968 47.8526 16.0136 49.0006 16.0136C50.1497 16.0136 51.1063 16.3968 51.872 17.1622L57.6778 22.9683L80.7736 46.0648C81.5406 46.8306 81.9223 47.7878 81.9223 48.9357C81.9225 50.084 81.5408 51.0415 80.7739 51.8078Z" fill="white"/>
</svg>
